# xmcd
#
# Track frame offsets: 
#        150
#        13262
#        31805
#        46705
#        66375
#        85155
#        105387
#        124235
#        139795
#        155370
#
# Disc length: 2325 seconds
#
# Revision: 2
# Processed by: cddbd v1.5.2PL0 Copyright (c) Steve Scherf et al.
# Submitted via: ExactAudioCopy v0.99pb4
#
DISCID=7b09130a
DTITLE=Etta James - Seven Year Itch
DYEAR=1988
DGENRE=
TTITLE0=I Got The Will
TTITLE1=Jump Into My Fire
TTITLE2=Shakey Ground
TTITLE3=Come To Mama
TTITLE4=Damn Your Eyes
TTITLE5=Breakin' Up Somebody's Home
TTITLE6=The Jealous Kind
TTITLE7=How Strong Is A Woman
TTITLE8=It Ain't Always What You Do (It's Who You Let See You Do It)
TTITLE9=One Night
EXTD=Island Records A2 91018\nProduced by Barry Beckett for Beckett Pr
EXTD=oductions\nTracks 4, 6 and 8 produced by Rob Fraboni and Ricky Fa
EXTD=taar
EXTT0=
EXTT1=
EXTT2=
EXTT3=
EXTT4=
EXTT5=
EXTT6=
EXTT7=
EXTT8=
EXTT9=
PLAYORDER=
